<?xml version="1.0" encoding="utf-8"?>
<!-- Generator: Adobe Illustrator 21.0.2, SVG Export Plug-In . SVG Version: 6.00 Build 0)  -->
<svg version="1.1" id="Calque_1" xmlns="http://www.w3.org/2000/svg" xmlns:xlink="http://www.w3.org/1999/xlink" x="0px" y="0px"
	 viewBox="0 0 1440 263" style="enable-background:new 0 0 1440 263;" xml:space="preserve">
<style type="text/css">
	.st0{fill:url(#SVGID_1_);}
	.st1{fill:url(#SVGID_2_);}
	.st2{fill:#323232;}
</style>
<g>
	
		<linearGradient id="SVGID_1_" gradientUnits="userSpaceOnUse" x1="-470.2389" y1="2957.8564" x2="-470.2389" y2="2956.8845" gradientTransform="matrix(121.3526 88.1679 133.4273 -183.647 -336811.0625 584735.4375)">
		<stop  offset="0" style="stop-color:#323232"/>
		<stop  offset="1" style="stop-color:#FFBC48;stop-opacity:0"/>
	</linearGradient>
	<path class="st0" d="M780.6,124.3c0,0.5-0.4,0.6-0.4,1.1c-0.5-0.7-0.7-0.6-1.4-0.1C778.7,124,779.8,125.1,780.6,124.3z
		 M780.8,125.3c0.6,0.1,1.7-1.8,2.4-0.2c-1.1,0.4-1.6,0.6-1.8,1.6c-0.3-0.3-0.5-0.8-1.2-0.4c0.2-0.5,0.6-0.7,0.6-1.4
		C781.1,125,781,125.3,780.8,125.3z M772.9,128.2c1.2,1.5-1.2,0.5-1.9,1.1c0.1-0.3,0.5-0.4,0.2-1
		C771.8,128.5,773.1,129.3,772.9,128.2L772.9,128.2z M698.1,184.9c1.5-2.6,4.4-2.4,6.5-3.9C704,182.6,699.8,183.3,698.1,184.9z
		 M817.1,112.8c0.3,0,0.6,0.1,0.6,0.7c1.6,0.1,2.1-1.3,3.5-1.3c-0.1-0.8-0.3-1.4-0.8-1.7c-0.5,0.9-1.3,2.3-2.2,1
		c0,0.6-0.2,1.1-0.5,1.3C817.7,112.5,817.2,112.4,817.1,112.8L817.1,112.8z M821.1,112.5c1.2,0.2,0.8-2.4,0-1.4
		c0-0.4-0.1-0.8-0.6-0.7C820.4,111.4,821.2,111.4,821.1,112.5z M807.6,114c-0.6-0.4-2.3-0.3-2.3,0.8
		C805.9,114.4,807.6,115.1,807.6,114z M803.8,115.7c-1.2,0.1-3.6,0.4-3,1.6C801.7,116.6,803.3,116.7,803.8,115.7z M807.5,117.6
		c0.5-1.6,2.2-1.9,3.7-2.2c1.5-0.3,2.9-0.5,2.9-2.2c-1.3,0.6-1.1,0.5-2.3,0c0.3,2.2-1,0.4-1.4,1.8c-0.4,0-0.3-0.6-0.6-0.7
		c-0.9,0.6-0.7,1.4-2.2,0.8c-0.2,1.7-1.9,0.4-3,1.5l0,0.7c0.2,0,0.3,0,0.3,0.3c0.8-0.3,0.9-1.3,1.9-1.5
		C806.9,116.9,807.6,116.7,807.5,117.6L807.5,117.6z M795,120.6c0.2,1,0.8,1.3,1.2,2l1.4,0c-0.1-1,0.8-1,1.4-1.3
		c0.2,0.8,0.8,1.4,0.3,2c0.4-1,1.1-2.2,0.3-3c0.7,0.7,0.6-0.4,1-0.7c-0.4-0.3-3.3,0-1.3,0.7C797.3,119.7,796.7,121.1,795,120.6
		L795,120.6z M631.1,198.1c0.2,1.2,2.2,0.1,2.1-0.4C632.2,197.8,632.4,197.7,631.1,198.1L631.1,198.1z M754.3,156.9l1.4-0.4
		c-0.3-0.3-3.3,0.4-3.3,1.3C753.4,157.4,753.9,157.2,754.3,156.9L754.3,156.9z M736.4,168.5c-1.9-0.9-5.4,1.3-6.8,2.5
		C732.2,170.4,733.8,169.1,736.4,168.5L736.4,168.5z M722.3,174.3c0.5-0.2,2.6-0.5,3-1.9C724.3,173.2,719.5,175.1,722.3,174.3z
		 M600,211.7c-2.5,0-7.6,2.6-11,1.9c3.9-1,6.1-1.6,10.1-3.1c-0.3-0.7-1.1,0.2-1.6,0.2c12.3-4.5,20.2-7,30.4-10.8
		c0.7-0.5,0.1-1.2,0.3-1.5l5.1-1.9c0.3,1.7,1.3,1.3,2.1,1.8c0.7,0-0.7-1.4,0-1.5c-0.3-0.7-0.9-0.4-1.5-0.2c6.3-3.2,16-7,25.1-11
		c-0.1-0.7,1.5-0.4,0.8-1.4c4.4,0.8,6.7-2.8,10.7-3.6c-0.9-0.8,0.9-0.2,1.3-1.6c0.6-0.3,0.4,0.1,0.5,0.5c13.4-6,27.6-12,36.5-17.3
		c2.1-0.1,4.3-0.8,6.6-2.8c4.3-1.5,9.2-2.7,12.3-6.4c0.3,0.5,0,0.7-0.3,0.8c2.1-0.2,5.4-1.5,7.6-2.8c0.5-0.2-0.6-0.7-0.5-1.6
		c0.4-0.3,1.7-0.1,1.6-0.8c1.4,0.7-1.4,0.5-0.6,1.6c1.8,0.3,3.3-1.1,4.6-2.5c7.7-1,15.8-6.2,21.4-7.8c0.2-1-1.2-0.4-0.5-0.9
		c0.5,0,0.4-0.4,0.3-0.8c1,0,0.1,1,0.9,1.5c4.5-2.2,6.7-2.5,9.7-4.9c-0.3,1.4,0.4-0.1,0.9,0.5c0.8-1.1,1.2-2.6,2.9-2.9
		c0.3,1.1-1.5,1-2,2.1c1.8-0.4,3.4-0.7,5-1.3c1.6-0.6,3.2-1.6,4.9-3.5c-0.5-1.4-1.5,0.7-1.7-0.8c1.6-1.5,2.9-2.3,4.8-1.8
		c0,0.4-0.5,0.3-0.4,0.7c0-0.6,2.8-0.9,2.6-2.7c1.4,0.8,2.4,0.1,2.4-2c0.8,0.4,1.8,0.2,2.3,1.1c0.3-0.3-0.2-0.8,0.7-1.1
		c-1.2-1.4-1.9-0.8-4-0.2c-0.4,0.7,0.2,0.6,0.2,1.7c-1.2-0.1-0.4-1.2-1.5-1.5c-2,0.6-1.9,1.7-4,1.9c0.2-2.5,2.7-2,4.2-2.6
		c0.3-0.7,1.7-1.8,1.7-1.9c0.3-0.8,0.6,0.3,0.4,1c2.5-0.8,2.3-2.3,2.6-3.7c0.8,0.3,1,0.9,0.8,2c2.1-1.1,5.7-0.5,5.9-4.3
		c0.3,0.2,0.3,0.8,0.9,0.6c0.3-1.7,2.2,0.2,2.6-2.2c1.2,1.4,2.9-0.4,4.1-0.9l0.1,1.7c1.6-0.4,2.9-1.3,4.4-1.9
		c-0.9-1.6-2.6,1-4.1,0.9c2-1.5,4.1-2.5,6.2-3.4c2.2-0.9,4.4-1.8,6.7-2.6c-2.9,2-5.4,2.6-8.5,4.2c0.7,0.9,1.4-0.8,2,0.3
		c1.6-1.6,5.5-3.2,6.8-2.4c1-1.9,3.6-1.9,6.1-3.3c1,0.7-0.9,0.8-0.9,1.3c0,1.1,1.4-1,1.1,0.7c-1.3,0.1-1.3,0.4-1.7-0.7
		c-0.1,1.5-0.8,0.2-0.9,1.7c-0.6,0.1-0.5-0.5-0.5-1c-0.2,0.9-0.4,2.1-1.5,1.3c0,2,2.6,0.7,2.9-0.3c1.4,0.4,3.2,0.4,4.6-0.5
		c0.6,0.1,0.6,0.9,0.5,1.7c0.2-0.9,2.3,1.1,1.6,2.1c1.7,1.4,2.1,0.8,3.5,1.9c-0.9,0.9,0.2,0.4-0.7,1.7c0.2,1,1,1.2,1.5,1.8
		c0.1,1.5-1,1.3-1.3,2.3c1.2,0.1-0.5,1.5,1.3,1.1c-0.5,0.8-1.4,1.2-0.1,1.7c0.1,1.3-1.1,0.7-1.2,1.6c-0.1,1.2,0.6,1.6,0.6,2.8
		c0,0.8-0.5,0.7-0.4,1.7c-2.5,2-5.2,3.7-8,5.1c-2.8,1.5-5.7,2.8-8.7,3.7c-9.2,3.2-18.6,7-28,10.4c-2.8,1-5.9,2.1-9,3.1
		c-3.1,1.1-6.2,2.1-9.1,3.1c-10,3.3-17.7,6.4-25.7,9.8c-9.4,3.9-18.8,7.9-28.1,12c-9.3,4-20.2,10-30.2,13.4
		c-4.6,1.6,0.5-0.9,1.4-1.3c9.7-4.6,17.9-7.8,27.3-12.7c-1.3,0-3.5,0.9-4.9,1.8c7.4-5.1,17.7-8.4,25.9-11.9c0,1-0.8,0.5-1.7,1.2
		c3.5-0.1,5.5-2.4,9.5-3.3c-1.5-1.2-2.5,0.9-4.8,1.1c-0.4,0.1-0.8,0.4-1,0l0.9-0.3c7.4-4.1,15.7-6.4,22.4-10
		c-5.2,1.4-11.5,2.7-17,6.6c0.1-0.3,0.1-0.7-0.2-0.7c-5.3,2-10.3,3.9-14.9,6.1c6-3.6,12.6-5.9,19.4-9.1c-3.7,0.2-7,2.7-11.5,3.7
		c-0.6,0-0.3,0.6-0.2,1.1c-3.4,0-6.4,1.6-9.3,2.6c-22.3,8.3-41.1,18-66.8,28.9c-1.1,0.5-2.1,0.7-3.6,1.4c-1.1,0.6-2.7,0.3-3.8,0.8
		c-3,1.3-5.6,4.3-8.8,3.1c-0.8,0.5-3,1.1-2.1,0.4c3.5-2.4,7.3-3.1,10.2-4.4c12.2-5.6,24.3-10,34.8-15.1c-9.8,2.5-18.9,8.5-27.6,11.5
		c-4,1.4-8.8,3.7-12.6,4.7c-17.2,4.7-33.5,14.6-52.1,17C598.8,212.2,599.6,212.1,600,211.7L600,211.7z M795.9,118.7
		c-0.4,0.2-0.5-1.7,0.2-1.3c0,0.3-0.2,0.4-0.2,0.7c1.1,0.4,0.3-1.3,1.2-1.1c-0.6,1.4,0.6-0.2,1.5,0.1
		C797.7,118,796.7,118.3,795.9,118.7z M779,127.7c-0.5-0.5-1,0.4-2.1,0.3c0.5-1.4,1.6-1.1,1.9-2.3C779.7,126,779.1,127.3,779,127.7z
		 M774.9,128.8c-0.2,0.1-0.3-0.1-0.3-0.3c-0.3,0.6,0,2.3-1,1.5c-0.2-0.8,1-0.5,0.4-1.7C774.4,128,774.8,128.2,774.9,128.8z
		 M775.6,128.4c0.6,0.4-0.7,2.2-1.3,1.5C774.2,128.9,775.3,129,775.6,128.4z M771.7,130.4l-0.2-1c0.5,0,1.3-0.6,1.2,0.5
		C772.2,129.9,772.2,130.4,771.7,130.4L771.7,130.4z M765.4,131.9c-0.3,0-0.3-0.6-0.7-0.6c0.1-0.7,1.5-0.5,1.5-1.3
		c0.9,0.6-0.3,1.7-1,1.2L765.4,131.9z M767,131.9c0.5,0.2,2.7-0.4,2.6-1.7c0.6,0.7,0.7,0.6,1.5,0.1c0.4,1-0.4,0.8-0.3,1.6
		C769.1,131,767.8,134.1,767,131.9L767,131.9z M750.3,137.8c-0.9,0.6-0.6-1.4-1-2.1C750.1,135.5,750.5,137.2,750.3,137.8z
		 M741.1,142.3c0.2-0.6,0.8-1,1.6-1.2C742.8,142,741.5,142.6,741.1,142.3z M759.8,137.6c0-0.3,0.1-0.6-0.1-1.1
		c1,1.4,2.9-2.6,3.3,0.6C761.6,135.6,761.1,138.8,759.8,137.6z M738.4,143.8c0.3-0.8,1.5-1.1,2.2-2.1c-0.2,0.5-0.5,0.9-0.3,1.7
		C739.3,143.3,739.2,144.4,738.4,143.8z M757,139.4c-0.3-0.1-0.5-0.3-0.9-0.2c-0.4-0.9,0.3-0.8,0.2-1.5
		C756.9,138,757.3,138.8,757,139.4L757,139.4z M758.5,138c0.2,0.7-0.9,0.4-1.2,0.6c0-0.7,0.3-1,0.1-1.8
		C758.3,136.8,758.1,137.8,758.5,138L758.5,138z M722.4,150.7c-0.1-1.3,2-1,2.6-1.8C724.9,150.6,723.5,149.7,722.4,150.7z
		 M723.7,155.3c0.1-0.3,0-0.8-0.3-1.3l1.4-0.4C725.3,155.2,724.1,154.3,723.7,155.3z M616.3,202.8c1.9-2,6.2-2.3,10.7-4.6
		C625.1,199.9,619.6,201.4,616.3,202.8z M629.9,206.4C632.2,204.5,633.3,205.7,629.9,206.4z M637.4,203.4
		C639.4,201.6,640.9,202.6,637.4,203.4z M722.1,170.7c0.4,1.4-2,1-2.8,1.6C717.9,172,721.9,171.5,722.1,170.7z M709.1,179
		c0.1-1.1,2.7-0.6,2.8-1.7C712.9,178.1,709.4,179,709.1,179z M708.3,180.2c-0.2,0.1-0.3,0-0.4-0.2
		C704.6,182,707.2,178.2,708.3,180.2z M686.9,189.2C688.8,187.3,690.3,188.3,686.9,189.2z M690.9,187.8c1.7-0.9,4.6-3.5,6.8-2.5
		C695.4,186,692.5,187.4,690.9,187.8z M657,201.6c-1.9,1.1,1.1,0,2.5-0.5c1.8-0.7,3.9-1.4,4.2-2.4
		C661.8,199.3,658.8,200.6,657,201.6L657,201.6z"/>
	
		<linearGradient id="SVGID_2_" gradientUnits="userSpaceOnUse" x1="-481.9235" y1="2962.9358" x2="-482.9998" y2="2962.5044" gradientTransform="matrix(1432.0912 521.2386 262.3298 -720.7452 -85365.0391 2387146.25)">
		<stop  offset="0" style="stop-color:#BAB9B9;stop-opacity:0"/>
		<stop  offset="0.5193" style="stop-color:#BAB9B9"/>
		<stop  offset="1" style="stop-color:#323232;stop-opacity:0.24"/>
	</linearGradient>
	<path class="st1" d="M316,475.1c-3.3,0.2-6.9,0.1-10.6-0.2c-3.8-0.4-7.7-1-11.7-1.7c-8-1.5-16.2-3.9-23.5-6.2
		c-7.4-2.5-13.9-5-18.6-7.1c0.5-4.2,2.8-3.2,4.9-2.8c2.1,0.4,3.9,0.3,3.7-6.2c3,3.9-0.5,14.6,8.1,12.6c2.5-7.2-1.6-7.2-4.7-8.2
		c5.4-5.3,8.6-1.3,11.9,2.5c3.1,3.6,6.3,7.1,11.3,3.4c0.4-0.4,0.8-0.7,1.4-1.2c-0.5,0.5-0.9,0.8-1.4,1.2c-3.7,3.6,1.4,4.7,10.1,5.3
		c9.5,0.8,23.2,0.8,33.8,3.6C327.8,473.1,322.6,474.7,316,475.1 M115.9,293.3c-1.9,0.9-7-1-8.8-8.5c-3.1,1.2-6.1,0.3-9.1-2.1
		c1.9-2,3.7-1.5,5.7-4.4c-1.1-1.6-2.4-0.1-3.7,1.6c-1.3-11.7,11.8-1.7,7.1,4.9C116.8,288.6,117.8,292.3,115.9,293.3 M84.2,290.7
		c5.9-4.8,15.3,6.2,15.3,10.6C91.7,303.4,91.7,296.6,84.2,290.7 M1489.9,353.8c2.6-10.5,4.3-20.5,5.6-31c0.3-2.6,0.6-5.1,0.8-7.7
		c0.2-2.6,0.4-5.1,0.5-7.7c0.3-5.1,0.5-10.5,0.4-15.5c0-5.1-0.2-10.3-0.5-15.4c-0.3-5.2-0.8-10.2-1.5-15.4
		c-1.3-10.4-3.3-20.5-5.8-30.9c-5.3-20.5-13.2-41.3-24.7-62c-3.5-6.3-7.3-12.4-11.4-18.3l-1.5-2.2l-1.4-2l-2.8-3.8
		c-1.9-2.5-3.9-5-5.9-7.4c-8-9.5-16.7-17.9-25.7-25.2c-17.9-14.7-37-24.9-55.4-32.1c-18.5-7.1-36.5-11.2-53.3-13.6
		c-16.8-2.5-32.4-3.4-46.6-4.3c-3.6-0.2-7.3-0.3-10.9-0.1c-3.5,0.2-7.1,0.4-10.6,0.9c-6.9,1-13.8,2.4-20.7,4.1
		c-13.7,3.3-27.4,8.3-40.3,13.5c-26,10.5-49.6,22.7-68.6,28.4c-2.1,0.6-1.7-6.3-5.7-5.8c-10.1,1.5-23,8.9-35.2,16.9
		c-12.3,8.2-23.9,16.7-32.4,20c-7.1-4-13.9,3-19.8,8.2c-5.9,5.1-10.8,8.7-15-2.6c-5,4.7-10,8.8-14.9,12.4c-5,3.7-10,7-14.9,9.9
		c-4.9,2.9-9.8,5.3-14.7,7.6c-4.7,2.2-9.6,4.2-14.5,6c-2.4,0.8-4.7,1.6-7.1,2.4c-2.4,0.7-4.7,1.5-7.1,2.2c-4.6,1.3-9.2,2.6-13.8,3.6
		c-4.5,1-9,2.2-13.3,3.2c-4.3,1-8.5,1.9-12.5,2.9c-2.4,8.5,2.3,17-1,17.4c-5.3,1.7-3-12.4-8.4-10.8c-2.4,7.8,3.3,13.2-0.6,13.9
		c-0.5-4.1-1.3-7.9-2.6-10.6c-0.8,6,1.9,9-0.4,10.4c-1.5-0.1-1.8,2.8-3,3.4c-2-2.2,0.2-13.4-2.6-14c-0.3,7.6-1.8,6.4-3.4,5.2
		c-1.6-1.1-3.4-2.3-4.2,5.1c2.5-0.2,3.7,2.7,4.3,6.9c-9.5-0.5-20.9,4.2-31.4,9.1c-2.6,1.2-5.2,2.3-7.7,3.3c-2.5,1.1-4.9,2.1-7.3,2.9
		c-4.7,1.5-9,2.1-12.8,1.1c-2.1,7.7-5.1,9.3-8.5,10.2c-1.7,0.4-3.5,0.7-5.3,1.5c-1.8,0.8-3.6,2.2-5.2,4.8c-0.8-14-5.3-9.5-6.6-6.1
		c1.8,0.1,3.5,0.5,3.8,6.5c-3.1,6.3-7.1,5.7-11.4,4c-4.2-1.8-8.5-4.8-11.4-3.7c-3.3,1.3-5.5,17.7-9.9,16.1
		c-5.2-1.8-9.5,0.2-13.6,3.1c-4.1,3-8.1,7.1-12.9,9.8c-6.7,3.8-14.1,7.3-21.7,10.4c-7.8,3.2-15.7,6.1-24.2,8.9
		c-16.7,5.5-34.5,10.4-52.4,15.1l-13.3,3.5l-13.1,3.5c-8.7,2.3-17,4.8-25.2,7.3c-4,1.3-7.9,2.6-11.7,4c-3.7,1.3-7.4,2.7-11.1,4.3
		c-7,3.1-13.7,6.2-19.3,10c-4.3-3.7-9.5-5-15.1-4.9c-5.6,0.1-11.5,1.4-17.3,3.2c-5.7,1.7-11.3,3.8-15.9,5.3
		c-4.6,1.5-8.3,2.3-10.4,1.7c-6-1.9-6.5,6.8-17.7,7.6c-19.5,1.3-34.3,3.7-42.6-17.6c-5,4.1-10.6,5.7-16.3,6
		c-5.7,0.3-11.4-0.7-16.9-1.9c-2.7-0.6-5.4-1.1-8-1.6c-2.6-0.5-5-0.8-7.4-0.9c-4.7-0.1-8.9,0.9-12.3,4.3c2.9,2.3,7.2,2.6,8.1,7.9
		c-4.2-0.4-8.4-0.9-12.5-1.4l1.7-13.8c-5.3,0.1-10.3-0.6-15-1.7c-4.8-1.1-9.4-2.3-13.9-3.5c-4.5-1.2-9-2.1-13.5-2.3
		c-4.5-0.3-9.2,0.2-14.1,1.9c1.7,1.2,3.1,6.4,0.4,7.1c-5.1-2.1-14.6,0.9-12.7-9.7c5.3-2.8,6.2,12.1,10.5,2.2
		c-3.4-3.5-5.3-8.6-10.8-9.4c-1.4,5-2.2,12.7-4.8,13.2c-10.2-6.1-20.5-8.5-30.3-9.6c-4.9-0.6-9.7-0.9-14.1-1.2
		c-4.5-0.4-8.7-0.7-12.4-1.4c1.2-1.8,8.6-11.3,4.4-13.2c-12.7,8.3-25,0.5-36.2-8c-11.4-8.4-21.6-17-34.3-10.1
		c2.8-8.7-0.2-12.7-5-13.7c-4.8-1-11.7,1.4-16.5,5.9c3.9-6.6,3.9-11,2-14.2c-2-3.2-6-5.3-10.5-7.3c-4.2-1.5-2.5,9.6-9.2,6.5
		c-1.6-3.3-3.3-6.3-5.1-9c-1.8-2.7-3.8-5.1-5.9-7.4c-4.1-4.7-9-8.5-13.9-12.6c-5-4.1-10.4-8.1-15.7-13.2
		c-5.4-4.9-10.6-10.9-15.5-18.1c-7.8,3.4-5.5,13-10,9.6c-6.5-1.2-11-7-14.1-13.3c-3.1-6.4-5.1-12.9-7-16.1c1.9,3.3-5.4,3.1-1.3-1.7
		c6.5-3.1,6.7,0.5,7.6,4.3c0.8,3.8,2.1,8.1,9.8,5.8c-1.9-2.5-4.3-9.4-7.3-15.3c-2.9-5.9-6.7-10.6-12.2-9c-4.5,3.7-0.9,4.2,2,4.7
		c2.8,0.6,4.9,1.4-2.4,6.1c-2.7-1.5-4.6-3.1-6-4.8c-1.4-1.7-2.4-3.5-3.5-5.6c-1.1-2.1-2.1-4.5-3.7-7.2c-1.5-2.8-3.4-6.1-6.2-10
		c4.3-2,7.2-1.1,12.8-5.8c-6.5,1.7-11,0.3-15.8-2.1c-4.7-2.3-10-5.3-18.1-7c0.5,4.5,1.6,8.8,2.8,12.9c0.6,2,1.3,4.1,2.1,6.1
		c0.8,1.9,1.6,3.9,2.6,5.8c1.8,3.8,3.7,7.5,5.9,11c2.2,3.6,4.5,7.1,6.8,10.6c9.5,14,19.7,27.9,27.9,47.5
		c-15.2-16.4-26.1-29.6-35.2-42.8c-2.2-3.3-4.3-6.6-6.3-10c-2-3.4-3.8-6.9-5.5-10.5c-3.6-7.1-6.4-14.9-9-23.5
		c-3.7,1.7-8.4,5.2-10.2,3.1c5.8-4.9,5.3-10.5,2.7-15.7c-2.6-5.2-7.1-10.3-10-13.8c4.8,13.2-1.7,0.7-7.3,0.9
		c2.4,1.9,1.2,7.2-0.5,11.4c-1.6,3.8-3.6,6.5-3.9,4.2c0.2,6,4,11.9,7.6,17.5c3.8,5.8,7.7,11.2,7.5,16.5c0,2.5-9,3.7-7.7,7.5
		c-0.1-0.3,9-5.4,10.1-3.5c3,5.1-2.2,13.6,0.4,19.7c2.6,5.9,12.1,10.4,15.4,15.6c16.5,25.3,35.3,53.2,59,79.3
		c23.7,26.5,51.1,50.2,78.7,67.5c18.5,11.7,37.6,21.1,56.5,29c18.9,7.9,37.5,14.4,55.5,20.5c18,6,35.3,11.6,51.8,17.7
		c16.5,6.2,32.7,12.8,48.4,21c-7-2.3-14.1-4.3-21.2-6c-7.3-1.9-14.9-3.3-22.7-4.9c-15.5-3-32.2-5.9-49.5-9.8
		c-17.3-3.9-35.3-9-53-16.1c-17.6-7.1-35-16.4-50.4-28.3c-8.3,9.2-8.2-6.2-15.5,4.2c17.8,8.7,40.3,18.7,61.7,27.9
		c21.5,9.3,42,17.8,56.8,25.9c-0.8,9.5-9.3-4.9-10.2,4.5c4.3,3.8,18.1-1.9,13.3,10.6c-35.1-10.5-74.6-26.2-114.2-46.3
		c-19.8-10.1-39.5-21.2-58.5-33c-4.7-2.8-9.5-6-14.1-8.9c-4.7-2.9-9.3-6-13.8-9l-6.8-4.5c-2.3-1.6-4.5-3.1-6.7-4.6
		c-4.4-3.1-8.8-6-13.1-9c4.6,7.1,10,13.6,15.9,20c5.8,6.1,12.2,12.2,19.1,18c6.9,5.9,14.4,11.6,22.4,17.7c4,2.9,8.2,5.9,12.5,9.1
		c4.3,3.2,8.7,6.2,13.4,9.5c19.8,14,42,26,64.5,36.1c22.5,10,45.3,18,66.9,24.7c2.7,0.8,5.4,1.7,8.1,2.5l7.9,2.3
		c5.3,1.6,10.4,3,15.4,4.4c10,2.8,19.7,5.5,29.1,8.1c18.6,5.3,35.8,10.1,50.3,15.7c5.8-3.3,21.3-3.3,36.8-1.6
		c7.7,0.9,15.5,2.1,22.1,3.9c6.6,1.7,12,3.9,15,6.6c23.2,0.5,48-0.3,73.2-2c25.2-1.7,50.8-4.5,75.9-7.7c12.7-1.5,24.6-3.3,36.6-4.8
		c11.3-1.6,22.8-3,33-4.3c2.6-0.3,5.2-0.6,7.7-0.8l7.5-0.7c4.8-0.4,9.6-0.8,14.2-1.1c2.3-0.1,4.5-0.2,6.7-0.3
		c2.2-0.1,4.3-0.1,6.5-0.1c4.2,0,8.5,0,12.4,0.2c-1.1,1.1-3.3,0.9-2.6,4.2c6.5,0,13.1-0.5,20-1.5c6.6-1,13.1-2.5,19.3-4.5
		c5.9-1.9,11.7-4.5,16.5-7.5c4.7-3,9-6.6,12.3-10.7c-4.1-7.9-11.4,5-15.5-3.3c3.1-2.1,6.5-4.5,10.5-5.9c2.1-0.7,4-1.2,6.3-1.2
		c2.2-0.1,4.7,0.3,7.4,1.2c1,4.3-0.5,5.1,1.1,10.4l4.7-1.4c1.5-0.4,2.9-0.8,4.4-1.2l8.6-2.3l8-1.9c2.6-0.6,5.3-1.3,7.7-1.7l7.2-1.5
		c1.2-0.3,2.3-0.5,3.4-0.7l3.3-0.6l3.3-0.6c1.1-0.2,2.2-0.4,3.1-0.6c2-0.3,3.9-0.7,5.9-1.1c2.1-0.5,3.8-0.7,5.5-1
		c1.8-0.3,3.5-0.7,5.3-1.1c3.3-0.6,6.6-1.4,10-2.4c3.5-0.8,6.9-1.8,10.5-3.1c3.7-1,7.3-2.4,11.2-4c11-4.2,22.8-9.6,35.8-16
		c3.3-1.5,6.6-3.1,10-4.8l5.1-2.6l5.3-2.5l22.3-11.2c15.5-7.6,32.3-16.3,50.5-24.8c9.1-4.5,18.5-8.7,28.4-13.4l14.9-6.8
		c5.1-2.3,10.3-4.7,15.5-6.9c3.9-1.7,7.9-3.4,11.9-5.1l6-2.5l5.9-2.2c7.7-2.9,15.2-5.5,21.1-7.6c9.7-3.3,17.4-4.3,24.9-4.9
		c7.5-0.7,14.6-1.1,23.6-3c11.4-2.5,25.3-7.3,40.9-9.8c7.8-1.2,16-1.9,24.2-1.4c4.2,0.2,8.1,0.8,12.3,1.6c3.9,0.9,8.1,2.1,11.8,3.8
		c6.6,2.7,13.2,7.4,19.5,13.5c6.4,6.1,12.4,13.7,17.6,22.1c5.3,8.4,9.9,17.6,14,26.7c1.1,2.3,2,4.5,3,6.8c1,2.2,2.1,4.4,3,6.6
		c0.9,2.1,1.9,4.2,3,6.3c0.5,1,1.1,2,1.6,3c0.5,1,1,1.9,1.6,2.8c2.4,4.1,4.9,7.9,7.5,11.5c2.5,3.6,5.1,6.9,7.8,9.9
		c5.5,6,11.6,10.7,18.4,14c6.8,3.3,14.3,5.1,22.3,5.4c8,0.3,16.6-0.9,25.5-3.4c8.8-2.5,17.5-6.3,26.1-10.9c4.3-2.3,8.4-4.7,12.5-7.2
		c4-2.5,8-5.1,11.8-7.7c3.9-2.6,7.6-5.1,11-7.4c3.5-2.3,6.8-4.5,10-6.3c6.4-3.7,12.1-6.3,17.1-6.5
		C1477.3,395.1,1485,374.2,1489.9,353.8"/>
	<path class="st2" d="M1133,100.8c0,0.1-0.4,0.2-0.5,0.2c-0.4-0.4-0.6-1-0.9-1.4c-0.3-0.5-0.8-0.9-1.1-1.4s-0.4-1.1-0.5-1.6
		c-0.2-0.5-0.3-1.1-0.4-1.6c-0.1-0.5-0.3-1.1-0.4-1.6c-0.1-0.6-0.1-1.3-0.2-1.9c-0.2-0.6-0.3-1.2-0.5-1.8c-0.3-0.6-1.2-0.8-1.6-1.3
		c-0.4-0.5-0.8-1-1.4-1.4c-0.7-0.4-1.5-0.7-2-1.1c-0.5-0.5-0.8-1-1.1-1.5c-0.3-0.5-0.5-1.1-0.7-1.7c-0.2-0.6,0-1.4-0.1-2
		c-0.2-0.6-0.6-1.1-0.8-1.7c-0.1-0.6-0.6-1.1-0.7-1.7c-0.1-0.6-0.1-1.3-0.2-1.9c-0.1-0.6,0-1.4-0.1-2c-0.1-0.6-0.5-1.1-0.7-1.7
		s0.3-1.6,0.1-2.1c-0.2-0.6-1.2-0.7-1.5-1.3c-0.3-0.5-0.2-1.3-0.7-1.7c-0.1-0.1,0.7-0.6,0.8-0.5c0.4,0.4,1.3,0.5,1.8,0.9
		c0.5,0.4,1.3,0.5,1.8,0.9c0.5,0.4,0.1,1.2,0.6,1.6c0.5,0.4,1.8,0.3,2.2,0.7c0.4,0.4,0,1.3,0.4,1.7c0.4,0.5,1.5,0.6,1.9,1.1
		c0.4,0.5,0.4,1.2,0.7,1.7c0.3,0.6,0.1,1.3,0.3,1.9c0.2,0.6,0.8,1,1,1.6c0.2,0.6,0.1,1.3,0.4,1.9c0.2,0.6,0.3,1.2,0.6,1.8
		c0.2,0.6,1,1,1.2,1.6c0.2,0.6,0.4,1.2,0.4,1.9c0.1,0.6,0.6,1,0.6,1.6c0,0.6-0.8,1.6-0.8,2.2c0,0.6,0.8,0.9,0.8,1.5
		c0,0.6,0.2,1.1,0.2,1.7c0,0.6,0.2,1.1,0.3,1.7c0,0.6-0.5,1.4-0.4,1.9c0.1,0.6-0.4,1.3-0.3,1.9c0.1,0.5,0.4,1,0.5,1.6
		C1132.3,99.9,1132.8,100.3,1133,100.8z"/>
	<path class="st2" d="M1140.2,22.9c0,0-0.2,0.4-0.3,0.4c-0.5-0.1-0.9-0.3-1.4-0.5c-0.5-0.2-1-0.2-1.4-0.4c-0.4-0.2-0.7-0.6-1.1-0.9
		c-0.4-0.3-0.6-0.7-1-1c-0.3-0.3-0.7-0.7-0.9-1c-0.3-0.4-0.5-1-0.8-1.4c-0.3-0.4-0.6-0.8-1-1.2c-0.4-0.3-1.3-0.1-1.8-0.3
		c-0.5-0.2-1-0.5-1.6-0.5c-0.7,0-1.5,0.1-2.1-0.1c-0.5-0.2-1-0.5-1.4-0.8c-0.4-0.3-0.8-0.8-1.1-1.1c-0.4-0.4-0.3-1.2-0.6-1.6
		c-0.3-0.4-0.8-0.7-1-1.2c-0.3-0.5-0.8-0.7-1-1.2c-0.2-0.5-0.3-1.1-0.5-1.6c-0.2-0.5-0.2-1.2-0.4-1.7c-0.2-0.5-0.6-0.8-0.8-1.3
		c-0.2-0.5,0.1-1.4-0.1-1.9c-0.3-0.4-1.2-0.3-1.5-0.7c-0.3-0.4-0.3-1-0.7-1.4c-0.1-0.1,0.6-0.6,0.8-0.6c0.4,0.3,1.3,0.2,1.7,0.4
		c0.5,0.2,1.3,0.1,1.8,0.3c0.5,0.2,0.2,1,0.6,1.2c0.5,0.2,1.7-0.2,2.1,0c0.4,0.2,0.1,1,0.5,1.3c0.4,0.3,1.5,0,1.9,0.3
		c0.4,0.3,0.5,0.8,0.9,1.2c0.3,0.3,0.3,1,0.6,1.4c0.3,0.4,0.9,0.5,1.2,0.9c0.3,0.4,0.4,1,0.7,1.4c0.3,0.4,0.5,0.8,0.9,1.2
		c0.3,0.4,1.1,0.3,1.4,0.7c0.3,0.4,0.6,0.8,0.8,1.3c0.2,0.4,0.8,0.5,1,0.9c0.2,0.4-0.3,1.6-0.1,2.1c0.2,0.4,0.9,0.3,1.1,0.7
		c0.2,0.4,0.5,0.8,0.7,1.2c0.2,0.4,0.6,0.7,0.8,1.1c0.2,0.4,0.1,1.3,0.4,1.7c0.3,0.4,0.2,1.2,0.5,1.6c0.3,0.3,0.7,0.6,1.1,0.9
		C1139.3,22.7,1139.8,22.7,1140.2,22.9L1140.2,22.9z"/>
	<path class="st2" d="M1237.8,23c-0.7,0.3-1.2,0.8-1.9,1c-0.7,0.2-1.3,0.5-2,0.7c-0.7,0.2-1.6-0.3-2.4-0.2s-1.7-0.4-2.4-0.3
		s-1.4,0.3-2.2,0.4c-0.7,0.1-1.4,0.2-2.2,0.3c-0.7,0-1.2,0.8-2,0.9c-0.7,0-1.8-0.8-2.6-0.8c-0.7,0.1-1.3,0.6-2,0.7
		c-0.8,0.1-1.6,0.3-2.4,0.5c-0.8,0.2-1.4,1-2.2,1.2c-0.8,0.3-1.6,0.4-2.4,0.6c-0.8,0.3-1.7,0.2-2.4,0.4c-0.8,0.2-1.4,0.8-2.2,1.1
		c-0.8,0.2-1.7,0-2.4,0.3s-1.6,0.3-2.3,0.7c-0.7,0.4-1.2,1.5-1.9,1.9c-0.6,0.4-1.6-0.1-2.2,0.3c-0.6,0.4-0.9,1.8-1.5,2.3
		c-0.6,0.5-1.5,0-2.1,0.5c-0.6,0.5-1,1.4-1.6,1.8c-0.6,0.5-1,1.4-1.7,1.8c-0.2,0.1,0.1,1,0.3,0.9c0.7-0.4,1.6-0.3,2.3-0.6
		c0.7-0.3,1.2-1.3,2-1.5c0.8-0.2,1.8,0.3,2.6,0.2c0.8-0.2,1.5-0.5,2.3-0.6c0.8-0.1,1.7,0,2.5-0.1c0.8-0.1,1.7,0,2.5-0.2
		c0.8-0.1,1.5-0.6,2.3-0.7c0.8-0.1,1.5-0.6,2.3-0.8c0.8-0.2,1.8,0.1,2.5-0.2c0.8-0.2,1.6-0.5,2.3-0.8c0.7-0.3,1.5-0.7,2.2-1.2
		c0.7-0.5,1.2-1.4,1.8-2.1c0.6-0.7,1.3-1,2-1.5c0.7-0.4,1.2-1.4,2-1.7c0.8-0.3,1.6-0.4,2.4-0.6c0.8-0.2,1.7-0.2,2.5-0.3
		c0.7-0.1,1.4-0.4,2.1-0.5c0.7-0.2,1.4-0.3,2.1-0.5c0.7-0.2,1.4-0.4,2.1-0.7c0.7-0.3,1.2-0.8,1.9-1.2c0.6-0.4,1.3-0.6,1.9-1.1
		C1238,23.4,1237.9,23,1237.8,23"/>
	<path class="st2" d="M1143.6,151c-0.1,0.1-0.6-0.3-0.6-0.4c0.3-1.1,0.9-2,1.3-3.1c0.4-1,0.6-2.2,1.1-3.2c0.5-1,1.2-1.8,1.9-2.7
		c0.6-0.9,1.4-1.7,2.1-2.5c0.7-0.8,1.4-1.7,2.1-2.5c0.8-0.9,1.9-1.6,2.8-2.5c0.8-0.9,1.7-1.8,2.4-2.7c0.7-1,0.5-2.6,1-3.8
		c0.5-1.1,1.1-2.2,1.3-3.6c0.2-1.4,0.2-3,0.6-4.2c0.5-1.2,1.2-2.2,1.8-3.2c0.7-1,1.5-1.9,2.3-2.8c0.8-0.9,2.3-1.3,3.2-2.1
		c0.9-0.8,1.4-1.9,2.4-2.7c0.9-0.8,1.5-1.9,2.5-2.6c1-0.7,2.2-1.3,3.2-2c1-0.7,2.3-1.1,3.3-1.8c1-0.7,1.7-1.7,2.7-2.4
		c0.9-0.8,2.7-0.7,3.6-1.5c0.9-0.8,0.9-2.5,1.7-3.4c0.8-0.9,2.1-1.3,2.8-2.3c0.2-0.3,1.2,0.7,1,1c-0.6,1-0.5,2.5-1,3.5
		c-0.5,1-0.5,2.5-0.9,3.6c-0.4,1-2,1-2.4,2.1c-0.4,1,0.2,3.1-0.3,4c-0.5,1-2,1-2.6,1.9c-0.6,1-0.3,2.9-1,3.8c-0.7,1-1.7,1.6-2.4,2.5
		c-0.7,0.9-2.1,1.3-2.9,2.1c-0.8,0.9-1.1,2.1-1.9,2.9c-0.9,0.8-2,1.4-2.8,2.3c-0.8,0.9-1.7,1.6-2.5,2.6c-0.7,0.9-0.9,2.3-1.7,3.2
		c-0.8,0.9-1.6,1.7-2.6,2.5c-0.8,0.7-1.1,1.8-1.9,2.5c-0.8,0.7-2.9,0.4-3.8,1.1c-0.9,0.7-0.8,2.1-1.7,2.7c-0.9,0.7-1.6,1.5-2.4,2.2
		c-0.8,0.7-1.5,1.6-2.3,2.3c-0.8,0.7-2.3,0.9-3.1,1.7c-0.8,0.8-2.2,1-2.9,1.9c-0.7,0.8-1.2,1.8-1.8,2.7
		C1144.4,148.9,1144.1,150,1143.6,151L1143.6,151z"/>
</g>
</svg>
