<?xml version="1.0" encoding="utf-8"?>
<!-- Generator: Adobe Illustrator 21.0.2, SVG Export Plug-In . SVG Version: 6.00 Build 0)  -->
<svg version="1.1" id="Calque_1" xmlns="http://www.w3.org/2000/svg" xmlns:xlink="http://www.w3.org/1999/xlink" x="0px" y="0px"
	 viewBox="0 0 728 458" style="enable-background:new 0 0 728 458;" xml:space="preserve">
<style type="text/css">
	.st0{fill:url(#SVGID_1_);}
</style>
<linearGradient id="SVGID_1_" gradientUnits="userSpaceOnUse" x1="-835.4587" y1="3045.4993" x2="-836.1884" y2="3044.7698" gradientTransform="matrix(232.8278 0 0 -139.4604 195099.8594 425060.0625)">
	<stop  offset="0" style="stop-color:#323232"/>
	<stop  offset="1" style="stop-color:#2FEAFC;stop-opacity:0"/>
</linearGradient>
<path class="st0" d="M541.8,342.4c0,0.5-0.3,0.7-0.2,1.2c-0.6-0.6-0.7-0.5-1.4,0.1C539.9,342.3,541.1,343.2,541.8,342.4L541.8,342.4
	z M542.2,343.4c0.7,0.1,1.4-2.1,2.3-0.5c-1,0.6-1.5,0.8-1.5,1.9c-0.4-0.2-0.6-0.7-1.3-0.2c0.1-0.5,0.5-0.8,0.4-1.4
	C542.4,343,542.3,343.3,542.2,343.4L542.2,343.4z M534.8,347.3c1.4,1.3-1.1,0.7-1.8,1.3c0-0.3,0.4-0.4,0.1-1
	C533.7,347.7,535.1,348.4,534.8,347.3L534.8,347.3z M468.5,413.9c1.2-2.8,4-3,5.9-4.8C474.1,410.7,469.9,412,468.5,413.9z
	 M576.4,325.9c0.3,0,0.7,0,0.6,0.6c1.6-0.1,1.9-1.5,3.3-1.8c-0.2-0.8-0.5-1.4-1.1-1.5c-0.3,1-1,2.5-2,1.3c0.1,0.6,0,1.1-0.3,1.4
	C576.9,325.5,576.4,325.5,576.4,325.9L576.4,325.9z M580.2,325c1.2,0,0.5-2.5-0.2-1.4c-0.1-0.4-0.2-0.8-0.7-0.6
	C579.4,324,580.2,324,580.2,325L580.2,325z M567.1,328.4c-0.6-0.3-2.4,0.1-2.1,1.1C565.4,329,567.2,329.5,567.1,328.4z M563.5,330.6
	c-0.3,1.1-1.9,1.2-2.7,2C560,331.5,562.4,330.9,563.5,330.6z M567.5,332c0.3-1.7,1.9-2.2,3.4-2.7c1.5-0.5,2.8-0.9,2.5-2.6
	c-1.2,0.8-1,0.7-2.3,0.4c0.6,2.1-0.9,0.6-1.1,1.9c-0.4,0.1-0.4-0.6-0.7-0.6c-0.8,0.7-0.5,1.5-2.1,1.1c0,1.7-1.8,0.7-2.8,1.9l0.1,0.7
	c0.2,0,0.3,0,0.3,0.3c0.7-0.5,0.7-1.5,1.6-1.7C566.8,331.4,567.5,331,567.5,332z M555.5,336.7c0.3,1,1,1.2,1.5,1.8l1.3-0.2
	c-0.3-1,0.6-1.1,1.2-1.5c0.3,0.7,0.9,1.2,0.6,1.9c0.2-1.1,0.8-2.4-0.1-3c0.7,0.6,0.5-0.4,0.9-0.8c-0.4-0.2-3.3,0.5-1.2,0.8
	C557.7,335.4,557.3,336.9,555.5,336.7L555.5,336.7z M404,436.3c1.2-0.6,1.1-0.4,2.1-0.7C406.2,436,404.3,437.4,404,436.3L404,436.3z
	 M520.3,378.3c-0.3,0.4-0.8,0.7-1.8,1.1c-0.1-0.9,2.7-2,3.1-1.7L520.3,378.3L520.3,378.3z M504.2,392.3c-2.5,0.9-3.9,2.4-6.3,3.4
	C499,394.3,502.2,391.7,504.2,392.3z M491,400c0.5-0.2,2.5-0.8,2.7-2.3C492.8,398.6,488.4,401.2,491,400z M375.1,454.1
	c-2.4,0.3-7.2,3.6-10.6,3.4c3.7-1.5,5.8-2.5,9.6-4.4c-0.4-0.7-1.1,0.4-1.6,0.4c11.5-6.2,19.1-9.8,28.6-14.9c0.6-0.6-0.1-1.2,0-1.6
	l4.8-2.6c0.6,1.7,1.5,1.1,2.3,1.5c0.7-0.1-0.9-1.3-0.2-1.4c-0.4-0.6-0.9-0.3-1.5,0c5.8-4.1,14.9-9.2,23.3-14.4
	c-0.2-0.7,1.4-0.6,0.6-1.5c4.5,0.2,6.3-3.7,10.1-5.1c-1-0.7,0.9-0.3,1-1.8c0.6-0.3,0.4,0.1,0.6,0.5c12.5-7.8,25.7-15.7,33.8-22.2
	c2.1-0.4,4.1-1.4,6.1-3.6c4-2.1,8.7-3.9,11.3-8c0.3,0.5,0.1,0.7-0.2,0.8c2-0.5,5.1-2.2,7.2-3.9c0.5-0.3-0.7-0.6-0.7-1.5
	c0.4-0.4,1.7-0.3,1.5-1.1c1.5,0.5-1.3,0.7-0.3,1.7c1.9,0,3.1-1.6,4.2-3.1c7.5-2.1,14.8-8.3,20.1-10.7c0.1-1-1.3-0.2-0.6-0.9
	c0.5,0,0.4-0.4,0.2-0.8c1-0.1,0.3,1,1.1,1.4c4.2-2.8,6.3-3.4,9-6.2c-0.2,1.4,0.4-0.1,1,0.4c0.7-1.2,0.8-2.8,2.4-3.3
	c0.4,1.1-1.3,1.2-1.7,2.3c1.7-0.6,3.3-1.1,4.8-2c1.5-0.8,3-2.1,4.4-4.1c-0.7-1.3-1.4,0.9-1.8-0.5c1.4-1.7,2.6-2.7,4.5-2.4
	c0,0.4-0.4,0.4-0.3,0.8c-0.1-0.6,2.7-1.3,2.2-3c1.5,0.6,2.4-0.2,2.1-2.3c0.8,0.2,1.9-0.1,2.4,0.8c0.2-0.4-0.3-0.8,0.5-1.2
	c-1.4-1.2-2-0.5-4,0.4c-0.3,0.8,0.3,0.6,0.4,1.6c-1.2,0-0.5-1.1-1.7-1.3c-1.9,0.9-1.7,1.9-3.7,2.4c-0.1-2.5,2.4-2.4,3.8-3.2
	c0.2-0.7,1.4-2.1,1.4-2.1c0.2-0.8,0.6,0.2,0.5,0.9c2.3-1.1,2-2.6,2-4.1c0.9,0.2,1.1,0.8,1,1.9c1.9-1.4,5.5-1.3,5.3-5.1
	c0.3,0.2,0.4,0.7,0.9,0.5c0.1-1.8,2.2-0.1,2.3-2.6c1.3,1.2,2.9-0.8,4-1.5l0.3,1.7c1.6-0.7,2.7-1.7,4.1-2.5c-1.1-1.4-2.4,1.3-4,1.4
	c1.8-1.8,3.7-3.1,5.6-4.2c2.1-1.2,4.1-2.4,6.3-3.5c-2.6,2.4-5,3.4-7.8,5.3c0.8,0.8,1.3-1,2,0c1.4-1.8,5-3.9,6.4-3.3
	c0.7-2,3.3-2.4,5.6-4.1c1.1,0.6-0.8,0.9-0.7,1.5c0.2,1.1,1.2-1.2,1.2,0.5c-1.3,0.2-1.2,0.6-1.8-0.5c0.1,1.5-0.8,0.3-0.7,1.8
	c-0.6,0.2-0.6-0.4-0.7-0.9c-0.1,1-0.1,2.1-1.3,1.5c0.3,1.9,2.7,0.4,2.8-0.7c1.5,0.2,3.2,0,4.5-1.1c0.6,0,0.7,0.8,0.7,1.6
	c0.1-1,2.4,0.8,1.9,1.9c1.9,1.1,2.2,0.5,3.8,1.4c-0.8,1,0.3,0.4-0.5,1.7c0.3,0.9,1.2,1.1,1.8,1.6c0.3,1.5-0.8,1.5-1,2.5
	c1.2-0.1-0.3,1.6,1.4,0.9c-0.4,0.9-1.2,1.4,0.1,1.7c0.3,1.3-1,0.8-1,1.8c0.1,1.2,0.8,1.5,0.9,2.6c0.2,0.8-0.4,0.8-0.2,1.7
	c-2.2,2.3-4.6,4.4-7.2,6.1c-2.6,1.9-5.3,3.5-8.1,4.9c-8.6,4.4-17.4,9.5-26.2,14.2c-2.7,1.4-5.5,2.9-8.4,4.3
	c-2.9,1.5-5.8,2.9-8.6,4.3c-9.5,4.7-16.6,8.8-24.1,13.3c-7.5,4.4-15.4,9.2-26.2,15.8c-8.7,5.3-18.6,12.7-28.1,17.5
	c-4.3,2.2,0.4-0.9,1.2-1.5c8.9-5.9,16.6-10.2,25.3-16.4c-1.3,0.2-3.4,1.4-4.6,2.5c6.6-6.1,16.3-10.8,24-15.3c0.1,1-0.7,0.6-1.5,1.5
	c3.5-0.6,5.1-3.2,8.9-4.5c-1.6-0.9-2.3,1.3-4.6,1.7c-0.4,0.1-0.8,0.5-1,0.1l0.9-0.4c6.7-5.1,14.6-8.6,20.8-13
	c-5,2.1-11,4.2-15.9,8.9c0-0.3,0-0.7-0.3-0.6c-4.9,2.8-9.6,5.3-13.9,8.1c5.4-4.4,11.7-7.6,17.9-11.7c-3.6,0.8-6.6,3.6-10.9,5.3
	c-0.5,0.1-0.2,0.6,0,1.1c-3.3,0.5-6.1,2.4-8.8,3.9c-20.9,11.3-38.2,23.6-62.1,38c-1,0.6-2,1-3.4,1.9c-1,0.7-2.6,0.7-3.7,1.3
	c-2.8,1.7-5,5-8.3,4.3c-0.7,0.6-2.8,1.5-2,0.7c3.1-2.9,6.8-4.1,9.5-5.8c11.3-7.3,22.6-13.3,32.3-19.8c-9.4,3.8-17.5,11.1-25.7,15.2
	c-3.8,1.9-8.2,4.9-11.8,6.4c-16.4,7.1-31.1,19.1-49.2,24.1C374,454.8,374.8,454.5,375.1,454.1L375.1,454.1z M556.2,334.7
	c-0.4,0.2-0.7-1.6,0-1.3c0,0.3-0.2,0.4-0.1,0.7c1.2,0.2,0.1-1.3,1-1.3c-0.4,1.4,0.6-0.2,1.5-0.1
	C557.8,333.7,556.9,334.1,556.2,334.7L556.2,334.7z M540.7,345.9c-0.6-0.4-1,0.6-2,0.6c0.3-1.4,1.5-1.4,1.6-2.5
	C541.2,344.2,540.7,345.5,540.7,345.9z M536.7,347.6c-0.2,0.1-0.3-0.1-0.4-0.2c-0.2,0.6,0.3,2.2-0.8,1.6c-0.3-0.8,0.9-0.6,0.1-1.8
	C536.2,346.9,536.5,347,536.7,347.6z M537.4,347.1c0.7,0.3-0.4,2.2-1,1.7C536,347.8,537.2,347.8,537.4,347.1z M533.8,349.7l-0.3-1
	c0.5-0.1,1.2-0.8,1.3,0.3C534.2,349.1,534.3,349.6,533.8,349.7L533.8,349.7z M527.8,352c-0.3,0-0.4-0.6-0.8-0.5
	c0-0.7,1.4-0.7,1.3-1.5c0.9,0.5-0.1,1.7-0.8,1.3L527.8,352L527.8,352z M529.4,351.8c0.6,0.1,2.6-0.7,2.3-2.1
	c0.7,0.6,0.8,0.5,1.5-0.1c0.5,0.9-0.3,0.9-0.1,1.6C531.4,350.6,530.5,353.8,529.4,351.8L529.4,351.8z M513.6,359.9
	c-0.8,0.7-0.8-1.3-1.2-1.9C513.1,357.7,513.8,359.4,513.6,359.9z M505.2,365.7c0.1-0.7,0.6-1.1,1.4-1.4
	C506.8,365.1,505.7,365.9,505.2,365.7z M523.1,358.4c0-0.3,0-0.6-0.2-1.1c1.2,1.3,2.5-3,3.3,0.1
	C524.5,356.2,524.5,359.4,523.1,358.4L523.1,358.4z M502.7,367.5c0.2-0.8,1.3-1.3,1.9-2.4c-0.1,0.5-0.4,1-0.1,1.8
	C503.5,366.9,503.6,368,502.7,367.5L502.7,367.5z M520.5,360.6c-0.3-0.1-0.5-0.2-0.9,0c-0.5-0.8,0.2-0.8,0-1.5
	C520.2,359.2,520.7,360,520.5,360.6L520.5,360.6z M521.8,359c0.3,0.7-0.8,0.5-1.1,0.8c-0.1-0.7,0.2-1-0.2-1.8
	C521.4,357.9,521.4,358.9,521.8,359L521.8,359z M487.8,376.6c-0.3-1.2,1.8-1.3,2.3-2.2C490.3,376.2,488.8,375.4,487.8,376.6z
	 M489.8,381c0-0.3-0.2-0.8-0.5-1.2l1.3-0.6C491.3,380.7,490,380,489.8,381z M390,443c1.6-2.2,5.8-3.1,10-6
	C398.3,438.8,393.1,441.1,390,443z M490.3,396.5c0.6,1.4-1.8,1.2-2.5,2C486.4,398.3,490.2,397.3,490.3,396.5z M478.6,406.5
	c-0.1-1.1,2.6-0.9,2.5-2.1C482.2,405.1,478.9,406.4,478.6,406.5z M478,407.8c-1.3-1.8-3.4,2.3-0.4-0.2
	C477.7,407.8,477.8,408,478,407.8z M461.8,417.7c1.5-1.1,4.1-4.2,6.3-3.4C466,415.3,463.3,417.1,461.8,417.7z M430.2,436.1
	c1.7-1.3,4.4-2.9,6.2-3.8c-0.1,1-2.1,2-3.8,2.9C431.3,435.9,428.4,437.5,430.2,436.1z"/>
</svg>
