<?xml version="1.0" encoding="utf-8"?>
<!-- Generator: Adobe Illustrator 21.0.2, SVG Export Plug-In . SVG Version: 6.00 Build 0)  -->
<svg version="1.1" id="Calque_1" xmlns="http://www.w3.org/2000/svg" xmlns:xlink="http://www.w3.org/1999/xlink" x="0px" y="0px"
	 viewBox="0 0 733 749" style="enable-background:new 0 0 733 749;" xml:space="preserve">
<style type="text/css">
	.st0{fill:url(#SVGID_1_);}
	.st1{fill:url(#SVGID_2_);}
	.st2{fill:url(#SVGID_3_);}
	.st3{fill:url(#SVGID_4_);}
	.st4{fill:url(#SVGID_5_);}
	.st5{fill:#FE007C;fill-opacity:0.24;}
	.st6{fill:#FE007C;}
	.st7{fill:#FFFFFF;}
	.st8{fill:#9394A6;fill-opacity:0.32;}
	.st9{fill:#1E1010;}
	.st10{fill:#9394A6;}
	.st11{fill:#9394A6;fill-opacity:0.64;}
	.st12{fill:#304057;}
</style>
<g>
	
		<linearGradient id="SVGID_1_" gradientUnits="userSpaceOnUse" x1="-835.7671" y1="3204.4736" x2="-836.5023" y2="3204.9746" gradientTransform="matrix(729.8218 76.7074 57.611 -548.1317 426337.9688 1821153.125)">
		<stop  offset="1.198948e-03" style="stop-color:#FE7394;stop-opacity:0"/>
		<stop  offset="0.4073" style="stop-color:#FE007C;stop-opacity:0.86"/>
		<stop  offset="1" style="stop-color:#FE7394"/>
	</linearGradient>
	<path class="st0" d="M492.1,242c77-78,269.8,143.5,482.1,192.7c141.6,32.8,214.8,22.8,219.7-30L1120.7,841
		C994.8,694.7,904.2,623.2,848.8,626.4c-55.4,3.2-96.3,26.7-122.9,70.5c36.9-188.3,12.1-258.4-74.4-210.1
		C521.6,559.2,415.2,320,492.1,242z"/>
	
		<linearGradient id="SVGID_2_" gradientUnits="userSpaceOnUse" x1="-835.7683" y1="3202.4832" x2="-836.4899" y2="3202.4934" gradientTransform="matrix(731.9223 76.9281 39.146 -372.4493 487037.4688 1257302.25)">
		<stop  offset="0" style="stop-color:#FE7394;stop-opacity:0"/>
		<stop  offset="0.9988" style="stop-color:#FE007C"/>
	</linearGradient>
	<path class="st1" d="M163.8,26C96.6-58,408.9,86.5,621.2,135.7c141.6,32.8,227.7,37.5,258.3,14.2
		C668.3,258.6,535,304.4,479.7,287.1c-55.3-17.3-90.9,19.7-106.9,110.8c36.9-188.3,12.1-258.4-74.4-210.1
		C168.6,260.2,231,110,163.8,26L163.8,26z"/>
	
		<linearGradient id="SVGID_3_" gradientUnits="userSpaceOnUse" x1="-835.2084" y1="3199.4058" x2="-835.9436" y2="3199.9067" gradientTransform="matrix(524.416 55.1183 26.4744 -251.8876 353667.4062 852364.125)">
		<stop  offset="0" style="stop-color:#FE7394;stop-opacity:0"/>
		<stop  offset="0.6848" style="stop-color:#FE007C;stop-opacity:0.84"/>
		<stop  offset="1" style="stop-color:#FE7394"/>
	</linearGradient>
	<path class="st2" d="M41.7,290.6c39.2,67.7,153.9,4.4,366.2,53.6C549.5,377,566.5,363,459,302c-96,166.6-160.2,231.2-192.5,193.6
		c-32.3-37.6-60.3-26.9-83.9,32c21.6-135.8-10.9-179.6-97.5-131.3C-44.7,468.7,2.6,222.9,41.7,290.6L41.7,290.6z"/>
	
		<linearGradient id="SVGID_4_" gradientUnits="userSpaceOnUse" x1="-839.2311" y1="3213.9849" x2="-839.9526" y2="3213.9951" gradientTransform="matrix(-719.9318 -206.4371 -113.0625 394.2958 -240351.4688 -1440004.75)">
		<stop  offset="0" style="stop-color:#FE7394;stop-opacity:0"/>
		<stop  offset="1" style="stop-color:#FE007C"/>
	</linearGradient>
	<path class="st3" d="M912.1,829.5C822.8,893,671.4,641.4,470.8,556.1c-133.7-56.9-207.6-59.7-221.6-8.6L397,322
		c49.2,98.5,141,124.4,275.3,77.6c201.5-70.2,2.9,70.2,185.5,98.4C1040.4,526.2,1001.5,766.1,912.1,829.5z"/>
	
		<linearGradient id="SVGID_5_" gradientUnits="userSpaceOnUse" x1="-832.8868" y1="3189.9138" x2="-832.4403" y2="3189.7886" gradientTransform="matrix(219.1772 23.0365 13.0087 -123.7698 141417.8281 414388.125)">
		<stop  offset="0" style="stop-color:#9394A6"/>
		<stop  offset="0.1445" style="stop-color:#9394A6;stop-opacity:0.87"/>
		<stop  offset="1" style="stop-color:#9394A6;stop-opacity:0"/>
	</linearGradient>
	<path class="st4" d="M397.5,416.1c-0.1-0.3,0.3-0.6,0.2-0.9c0.7-0.1,0.8-0.3,1.4-1.1C399.4,414.6,398.1,415,397.5,416.1z
		 M396.5,416.1c-0.8,0.6-1.5,2.6-2.8,2.4c1.2-1.3,1.7-1.8,1.6-2.5c0.5-0.2,0.8-0.1,1.6-1c-0.1,0.4-0.5,0.9-0.3,1.3
		C396.3,416.5,396.3,416.2,396.5,416.1L396.5,416.1z M404.8,407.3c-1.4,0.1,1.3-1.5,2-2.6c0,0.3-0.5,0.7-0.2,0.9
		C406,406,404.5,406.7,404.8,407.3L404.8,407.3z M519.7,352c-4.3-0.5-8.9-2.3-13.3-2.5c0.9-0.2,3.3,0.1,5.9,0.6
		C514.9,350.7,517.7,351.6,519.7,352L519.7,352z M356.4,450.7c-0.5,0.1-1,0.3-1-0.1c-2.6,0.7-3.2,1.5-5.7,2c0.2,0.4,0.6,0.7,1.6,0.6
		c0.8-0.6,2-1.7,3.5-1.4c0-0.3,0.1-0.6,0.7-0.9C355.5,451.1,356.3,450.9,356.4,450.7z M349.3,452.7c-2,0.2-1.1,1.4,0.1,0.7
		c0.1,0.2,0.2,0.4,1,0.2C350.4,453.1,349.2,453.2,349.3,452.7z M368.7,444.2c0.8-0.2,3-1.8,2.8-2.3c-0.3,0.4-1,0.8-1.6,1.2
		C369.2,443.5,368.6,443.9,368.7,444.2z M372.8,441c1.5-1,4.3-3.3,3.4-3.4C375.1,438.7,373.2,440,372.8,441z M368,442.3
		c-0.2,0.6-0.8,1.2-1.5,1.8c-0.4,0.3-0.8,0.6-1.3,0.9c-0.4,0.3-1,0.6-1.5,0.9c-1,0.6-2,1.1-2.7,1.6c-0.7,0.5-1.1,0.9-1,1.3
		c1.7-1.1,1.4-0.9,3.3-1.4c-0.7-0.8,1.3-0.9,1.6-1.8c0.5-0.3,0.5,0.1,0.9-0.1c1-0.9,0.6-1.2,2.6-1.9c0-0.5,0.6-0.9,1.3-1.3
		c0.7-0.5,1.5-1,2.1-1.6l-0.2-0.3c-0.2,0.1-0.4,0.2-0.4,0.1c-0.8,0.7-0.8,1.3-1.9,2.1C368.9,442.2,368,442.9,368,442.3L368,442.3z
		 M382.5,430.6c-0.3-0.4-1.1,0-1.5-0.1c-0.5,0.4-1,0.8-1.5,1.2c0.3,0.5-0.7,1.3-1.4,2c-0.3-0.3-1-0.1-0.6-0.8
		c-0.3,0.9-0.9,2.2,0.1,2c-0.8,0.2-0.6,0.7-1,1.2c0.5-0.1,3.7-2.8,1.3-1.4C380.1,433.2,380.6,431.9,382.5,430.6z M506.2,437.8
		c-0.1,0.7,2.8-0.7,2.9-1C507.8,437.2,508,437.1,506.2,437.8L506.2,437.8z M424.8,375.5l-2.3,1.5c0.3,0,1.6-0.8,2.9-1.6
		c1.3-0.8,2.5-1.7,2.6-2.1C426.2,374.3,425.4,374.9,424.8,375.5z M451.6,358.5c2.5-0.2,8.4-2.7,10.8-3.7c-1.8,0.5-3.6,1.1-5.4,1.8
		l-2.6,1C453.6,357.9,452.7,358.2,451.6,358.5L451.6,358.5z M475.9,351.3c-0.9,0.1-4.2,0.5-5.4,1.5c0.5-0.2,1.3-0.4,2.2-0.6l2.8-0.6
		C477.3,351.1,478.2,350.9,475.9,351.3L475.9,351.3z M457.5,449.2c-1.8-0.3-4.9-0.5-8.2-1.2c-1.6-0.3-3.3-0.7-4.8-1.2
		c-1.4-0.4-2.7-1-3.9-1.7c1.5,0.5,2.8,1,4.1,1.3c1.3,0.3,2.5,0.7,3.7,0.9c1.2,0.2,2.5,0.5,3.8,0.6c1.3,0.2,2.8,0.3,4.4,0.4
		c0-0.4-1.7-0.2-2.4-0.4c5,0.4,9.6,0.3,13.7-0.1c4.2-0.4,8-1,11.7-1.8c7.3-1.5,14-3.5,21.4-6c1.1-0.5,0.5-0.8,0.8-1
		c2.5-0.9,5-1.9,7.5-2.9c0,1,1.4,0.4,2.3,0.3c1-0.3-0.6-0.6,0.4-1c-0.2-0.3-1,0.1-1.9,0.5c4.7-2.3,10.7-5.4,16.4-10
		c2.8-2.3,5.7-5,8.1-8.2c2.4-3.1,4.6-6.6,6.1-10.3c-0.2-0.4,1-2.3,0.3-2.1c1.6-2.6,2.4-5.6,2.7-8.7c0.3-3.1,0-6.2-0.3-9.6
		c-0.4,1-0.2-1.6-1.2-2.8c-0.3-1,0-0.5,0.2-0.5c-1.8-6-5.4-11.3-9.7-15.3c-4.4-4.1-9.5-7-14.7-8.9c-5.2-1.8-10.4-2.7-15.1-2.9
		c-4.8-0.2-9.1,0.1-12.8,0.7c-3.1-0.1-6.4,0.3-10.4,1.5c-6.6,1.1-14,2.7-19.3,5.8c-0.2-0.2,0.2-0.4,0.6-0.6c-3,0.7-7.8,2.5-11.1,4.2
		c-0.8,0.3,0.6,0.2,0.3,0.8c-0.7,0.4-2.3,0.8-2.3,1.2c-1.8,0.1,1.9-0.9,1.1-1.2c-2.4,0.6-4.6,2.1-6.5,3.6
		c-5.2,2.2-10.5,5.4-15.1,8.8c-4.7,3.4-8.7,7.1-11.9,9.8c-0.2,0.8,1.5-0.7,0.6,0.2c-0.5,0.3-0.4,0.5-0.3,0.7
		c-1.1,0.8-0.2-0.5-1.1-0.2c-5,5-7.3,7.1-10.2,11.1c0.2-1.1-0.5,0.4-1,0.5c-0.7,1.3-0.8,2.5-2.6,4.2c-0.5-0.4,1.4-1.9,1.8-2.9
		c-3.6,3.5-6.9,6.6-9.7,11.5c0.8,0.3,1.4-1.7,2-1.1c-1.4,2.2-2.7,3.8-4.7,5.2c-0.1-0.2,0.5-0.6,0.3-0.8c0.1,0.3-2.8,3-2.2,3.7
		c-1.7,0.8-2.6,2.1-2.2,3.1c-0.9,0.5-2.1,1.5-2.7,1.4c-0.2,0.4,0.3,0.3-0.5,1.1c1.7-0.3,2.3-1.3,4.5-3.4c0.3-0.7-0.4-0.1-0.6-0.7
		c1.3-1,0.7,0.3,2-0.6c2-2.1,1.7-2.6,3.9-4.6c0.3,1.5-2.5,3.5-3.9,5.1c-0.2,0.6-1.5,2.4-1.4,2.4c-0.2,0.6-0.7,0.4-0.6-0.1
		c-2.5,2.5-2.1,3.2-2,4.1c-1,0.6-1.3,0.4-1.3-0.3c-0.5,0.6-1.2,1.2-1.8,1.8c-0.7,0.6-1.4,1.2-2,1.8c-1.2,1.2-2.2,2.4-1.9,3.4
		c-0.4,0.1-0.6-0.1-1.2,0.4c0,1.1-2.6,1.7-2.6,3.1c-1.7,0.2-3.5,2.5-4.9,3.5l-0.4-0.8c-0.9,0.6-1.8,1.3-2.7,2
		c-0.9,0.7-1.9,1.4-2.9,2c0.8,0.1,1.7-0.5,2.7-1.3c0.9-0.7,1.8-1.6,2.8-2.1c-2.1,2.1-5.1,4.2-8.1,5.9c-3.1,1.7-6.4,3.1-10.5,4.2
		l3.4-1.3c1.1-0.5,2.2-0.9,3.2-1.4c1-0.5,2.1-0.9,3.1-1.5c0.5-0.3,1-0.6,1.6-0.9l1.6-1c-1.2,0-1.9,1.3-3,1.1c-1.1,0.9-3.1,2-5.2,2.8
		c-1,0.4-2.1,0.7-3,0.9c-0.9,0.2-1.7,0.4-2.3,0.3c-1.5,1.2-6,1.8-11.1,1.8c-2-0.6,1.8-0.2,1.8-0.5c-0.1-0.6-2.8,0.2-2.2-0.6
		c2.6,0.3,2.5,0.1,3.3,0.7c0.1-0.8,1.5-0.1,1.7-0.8c1.1,0,1,0.3,1.1,0.5c0.4-0.5,0.5-1.1,2.5-0.8c-0.1-0.5-1.3-0.5-2.5-0.4
		c-1.2,0.1-2.5,0.3-2.7,0.6c-0.7-0.1-1.4-0.2-2.2-0.3c-0.8-0.1-1.5-0.2-2.3-0.3c-1.6-0.3-3.2-0.5-4.7-0.9c-1.3-0.5-1.1-0.9-0.8-1.3
		c-0.1,0.1-0.5,0-0.9-0.3c-0.5-0.3-0.9-0.6-1.3-1c-0.8-0.7-1.3-1.5-0.6-1.4c-0.8-0.6-1.3-1.2-1.9-1.7c-0.5-0.5-1-0.8-1.3-1.3
		c-0.7-0.8-1.5-1.6-2.3-3c1.5,1.1-0.2-0.5,1.4,0.3c0-0.6-1-2.2-1.4-3.2c0.4-0.7,1.6,1,2.3,1c-1.3-1.8,1,0.1-1.1-2.4
		c0.8,0.4,1.9,1.5,0.7-0.5c0.4-0.6,1.4,1.3,1.8,1.1c0.4-0.4-0.1-1.5,0.4-1.9c0.3-0.4,0.8,0.4,1-0.1l1.1,0.9c0.4,0.3,0.8,0.5,1.2,0.7
		c0.4,0.2,0.8,0.5,1.3,0.7l1.3,0.5c1.8,0.6,3.6,0.9,5.6,0.9c0.9,0.1,1.9-0.1,2.8-0.1c0.5,0,1-0.1,1.4-0.2c0.5-0.1,1-0.1,1.4-0.3
		c1.9-0.3,3.8-1,5.7-1.6c2.9-1.1,5.7-2.6,8.3-4.3l1-0.7l1-0.8l2-1.5c1.3-1,2.6-2.2,3.9-3.2c5.2-4.5,10.1-9.5,15-14.7
		c6-6.3,12.8-14,19.6-20.8c5.8-5.8,11.3-10.9,17.1-15.3c5.6-4.3,11.4-8.2,17.6-11.6c6.1-3.4,12.7-6.6,20.2-9.4
		c7.5-2.8,16-5.3,26.1-6.9c8.1-1.3,17.5-2.4,27.7-1c2.5,0.3,5.1,0.8,7.6,1.5c1.3,0.3,2.5,0.7,3.8,1.2c1.3,0.5,2.6,0.9,3.8,1.5
		c2.5,1.1,4.8,2.4,7.1,3.8c2.2,1.4,4.3,3.1,6.2,4.8c1.8,1.6,2.5,2.5,2.6,2.7c0.2,0.2-0.3-0.2-0.9-0.8c-0.7-0.7-1.6-1.5-2.5-2.2
		l-2.1-1.7c-4.1-3.1-8.4-5.4-12.9-7.1c-4.4-1.7-8.8-2.7-13.1-3.3c-8.6-1.2-16.9-0.7-25.4,0.8c2,0,5.9-0.5,8.5-0.8
		c-3.7,0.5-7.4,1.1-11,1.8c-1.9,0.4-3.8,0.7-5.6,1.2c-1.9,0.4-3.8,0.9-5.7,1.3c-7.6,1.9-15.1,4.4-21.6,7.3c0.3-0.7,1.3-0.7,2.8-1.5
		c-5.3,1.5-8.8,3.9-14.7,6.7c0.9-0.1,1.9-0.5,3-1.2c1.1-0.6,2.4-1.5,4.2-2c0.6-0.2,1.3-0.7,1.5-0.5l-1.4,0.6
		c-5.8,3.1-11.7,6.4-17.1,10.1c-5.4,3.6-10.5,7.6-14.7,11.7c3.3-2.8,7.1-5.5,11-8.3c4-2.8,8.2-5.5,12.4-8.4
		c-0.1,0.2-0.3,0.5,0.2,0.3c7.8-4.4,15.6-7.7,23.1-10.5c-10,4-20.1,8.7-29.8,15.3c5-2.5,10.1-6.1,16.8-8.8c0.8-0.3,0.6-0.5,0.5-0.8
		c4.9-1.6,9.6-3.6,14.3-5.1c4.4-1.4,8.8-2.6,13.3-3.6c4.5-1,8.8-1.8,13.4-2.3c9-1.1,18.6-1.3,28.5,1.2c2.5,0.6,4.9,1.5,7.4,2.5
		c2.5,1,4.9,2.3,7.1,3.7c4.6,2.9,8.8,6.7,12.3,11.5c1.8,2.5,3.3,5.2,4.4,8c1.2,2.9,2,6.1,2.3,9.3c0.4,3.2,0.4,6.5-0.1,9.6
		c-0.5,3.2-1.2,6.3-2.3,9.3c-0.8,2-1.6,3.8-2.9,6.3c-0.3,0.5-0.5,1-0.9,1.5c-0.3,0.5-0.7,0.9-1,1.4c-0.7,0.9-1.4,1.8-2.1,2.7
		c-1.7,2.3-3.4,4.7-5.4,6.7c-1.9,2-3.9,3.6-6,4.4c-1.2,1.1-4.2,2.9-2.9,1.8c2.7-2.1,5.2-4.2,7.5-6.3c2.4-2.2,4.4-4.4,6.1-6.6
		c3.4-4.7,6.1-9.9,7.7-15.5c0.8-2.8,1.3-5.8,1.5-8.8c0.2-3,0-6.1-0.6-9c-1.1-6-3.9-11.5-7.4-15.9c-1.7-2.1-3.6-4.1-5.7-5.9
		c-2-1.7-4.2-3.2-6.4-4.5c3.7,2.5,7.2,5.4,10.2,8.8c1.6,1.7,2.9,3.6,4.2,5.6c1.2,2,2.3,4.1,3.2,6.4c1.8,4.5,2.5,9.4,2.3,13.9
		c-0.1,4.3-1,8.6-2.6,12.6c-1.4,3.5-3.3,7.2-5.6,10.5c-2.3,3.3-5,6.2-7.5,8.4c-5.6,4.8-11.9,8.5-18.2,11.5c-6.3,3-12.7,5.2-19,7.3
		c-6.3,2-12.9,3.8-19.8,4.8c-6.9,1-14.1,1.2-21.3,0C455.4,449.2,456.7,449.3,457.5,449.2L457.5,449.2z M382.2,432.2
		c0.5-0.5,1.2,0.3,0.1,0.8c0-0.2,0.2-0.4,0.1-0.5c-1.6,0.8,0.1,0.9-1.2,1.6c0.3-1.1-0.8,0.6-1.9,1.3
		C380.2,434.1,381.4,433.1,382.2,432.2L382.2,432.2z M397.8,413.3c0.6-0.2,1-1.2,2.1-2c-0.4,1.3-1.5,2.1-1.6,3
		C397.4,414.8,397.8,413.6,397.8,413.3z M402.7,408.8c0.2-0.2,0.3-0.2,0.4-0.1c0.2-0.6-0.2-1.4,0.8-1.8c0.3,0.3-1,1.2-0.2,1.4
		C403.3,408.9,402.9,409.1,402.7,408.8L402.7,408.8z M401.8,410c-0.7,0.4,0.5-1.9,1.1-2C403.2,408.4,402,409.4,401.8,410z
		 M405.5,404.9l0.4,0.4c-0.5,0.4-1.2,1.4-1.3,0.7C405.1,405.6,405,405.4,405.5,404.9L405.5,404.9z M411.8,398.9
		c0.3-0.2,0.4,0.1,0.8-0.2c-0.1,0.6-1.5,1.5-1.5,2.1c-1,0.3,0.2-1.3,1-1.6L411.8,398.9L411.8,398.9z M410.1,400.9
		c-0.6,0.3-2.6,2.3-2.3,2.8c-0.7,0.1-0.8,0.3-1.4,1.1c-0.5-0.2,0.3-0.8,0-1C408.2,402.9,409,400.4,410.1,400.9L410.1,400.9z
		 M429.2,384.3c1.1-0.9,0.8,0.4,1.3,0.6C429.5,385.5,428.9,384.7,429.2,384.3z M440.5,376.5c-0.3,0.5-1.1,1-2.1,1.5
		C438.4,377.5,440,376.5,440.5,376.5z M417.7,391.3c-0.1,0.2-0.1,0.5,0,0.6c-1-0.2-3.1,3.9-3.4,2.1c0.8-0.1,1.3-0.7,1.8-1.4
		C416.6,392.1,417.1,391.4,417.7,391.3L417.7,391.3z M444.3,374.4c-0.6,0.7-2.4,1.6-3.5,2.7c0.4-0.5,0.9-1,0.9-1.5
		C443.1,375.2,443.5,374.4,444.3,374.4z M420.6,388.6c0.3-0.1,0.6-0.2,1-0.5c0.5,0.2-0.4,0.7-0.2,1
		C420.9,389.3,420.3,389.1,420.6,388.6L420.6,388.6z M418.7,390.3c-0.3-0.3,1-0.9,1.3-1.3c0.1,0.4-0.4,0.8,0,1.1
		C419,390.8,419.1,390.1,418.7,390.3z M466.2,365.2c-0.3,0.8-3,1.1-4.1,1.8C462.7,365.9,464.3,366.1,466.2,365.2z M467,362.6
		c-0.2,0.2-0.3,0.5-0.2,0.8c-0.7,0.2-1.4,0.4-2.1,0.6C464.8,363.1,466.1,363.4,467,362.6L467,362.6z M484.6,444.6
		c3.2-1.5,9.4-2.4,16.2-5C497.7,441.1,489.8,443.3,484.6,444.6z M501,443.8c1.9-1,3.2-1.3,3.3-1.3
		C504.5,442.5,503.5,443.1,501,443.8z M513.5,438.9c1.6-1,2.9-1.6,3.1-1.6C516.8,437.2,516,437.8,513.5,438.9z M475.1,353.2
		c0.1-0.8,3.5-0.8,5-1.2c0.9,0-0.2,0.2-1.5,0.4C477.1,352.7,475.4,353,475.1,353.2L475.1,353.2z M498.6,349
		c-0.4,0.2-1.6,0.2-2.7,0.2c-1.1,0-2.3,0-2.7,0.3c-0.5-0.3,0.7-0.4,2.1-0.5C496.7,348.9,498.3,348.9,498.6,349z M501.2,348.7
		c0.4,0,0.4,0.1,0.4,0.2C508,349,501.6,349.8,501.2,348.7z M538.9,363.8c-1.9-1.5-3.1-2.6-3.2-2.8
		C535.6,360.8,536.6,361.4,538.9,363.8z M532.4,358.6c-0.7-0.5-1.6-1-2.6-1.5c-1-0.5-2.1-1.1-3.2-1.6c-2.2-1.1-4.4-2-5.5-2.9
		c2,0.8,4.3,1.8,6.4,2.9C529.4,356.5,531.3,357.7,532.4,358.6z M540.8,422.2c-1.1,1.5-0.8,1.2,0,0.3c0.8-0.9,2-2.6,2.7-3.6
		c1.9-2.7,3.6-6.3,3.7-7.3c-0.4,0.8-0.8,1.7-1.3,2.6c-0.5,0.9-1,1.9-1.6,2.9C543.2,418.8,542,420.5,540.8,422.2L540.8,422.2z"/>
	<path class="st5" d="M113.7,9l1.8,0.8l0.5,1.8l-0.6,1.7l-1.7,0.7l-1.6-0.8l-1.1-1.6l0.8-1.8L113.7,9z"/>
	<path class="st6" d="M43.3,43l2.9,1.3l0.8,2.8l-0.9,2.7L43.3,51l-2.6-1.3L39,47.2l1.3-2.9L43.3,43z"/>
	<path class="st6" d="M88.3,38l2.9,1.3l0.8,2.8l-0.9,2.7L88.3,46l-2.6-1.3L84,42.2l1.3-2.9L88.3,38z"/>
	<path class="st6" d="M108.7,72l1.8,0.8l0.5,1.8l-0.6,1.7l-1.7,0.7l-1.6-0.8l-1.1-1.6l0.8-1.8L108.7,72z M64.7,60l1.8,0.8l0.5,1.8
		l-0.6,1.7L64.7,65l-1.6-0.8L62,62.6l0.8-1.8L64.7,60z"/>
	<path class="st6" d="M64.7,4l1.8,0.8L67,6.6l-0.6,1.7L64.7,9l-1.6-0.8L62,6.6l0.8-1.8L64.7,4z"/>
	<path class="st5" d="M121.7,43l1.8,0.8l0.5,1.8l-0.6,1.7l-1.7,0.7l-1.6-0.8l-1.1-1.6l0.8-1.8L121.7,43z"/>
	<path class="st7" d="M171.6,63l1.1,0.5l0.3,1.1l-0.3,1l-1,0.4l-1-0.5l-0.6-0.9l0.5-1.1L171.6,63z"/>
	<path class="st8" d="M616.7,604l1.8,0.8l0.5,1.8l-0.6,1.7l-1.7,0.7l-1.6-0.8l-1.1-1.6l0.8-1.8L616.7,604z"/>
	<path class="st9" d="M690.7,546l1.8,0.8l0.5,1.8l-0.6,1.7l-1.7,0.7l-1.6-0.8l-1.1-1.6l0.8-1.8L690.7,546z"/>
	<path class="st10" d="M633.7,585l1.8,0.8l0.5,1.8l-0.6,1.7l-1.7,0.7l-1.6-0.8l-1.1-1.6l0.8-1.8L633.7,585z"/>
	<path class="st6" d="M606.3,311l2.9,1.3l0.8,2.8l-0.9,2.7l-2.8,1.2l-2.6-1.3l-1.7-2.5l1.3-2.9L606.3,311z M639.7,319l1.8,0.8
		l0.5,1.8l-0.6,1.7l-1.7,0.7l-1.6-0.8l-1.1-1.6l0.8-1.8L639.7,319z"/>
	<path class="st6" d="M611.7,337l1.8,0.8l0.5,1.8l-0.6,1.7l-1.7,0.7l-1.6-0.8l-1.1-1.6l0.8-1.8L611.7,337z"/>
	<path class="st7" d="M595.6,605l1.1,0.5l0.3,1.1l-0.3,1l-1,0.4l-1-0.5l-0.6-1l0.5-1.1L595.6,605z"/>
	<path class="st10" d="M427.4,523.1c0.2-0.4,0.5-0.7,0.6-1.1c0.1-0.4,0.3-0.8,0.4-1.2c0.1-0.4-0.3-1-0.2-1.4c0.1-0.4-0.3-1-0.3-1.5
		c0-0.4,0.2-0.8,0.2-1.3c0-0.4,0.1-0.9,0.1-1.3c0-0.4,0.6-0.7,0.6-1.1c0-0.4-0.6-1.2-0.6-1.6c0-0.4,0.4-0.7,0.5-1.2
		c0.1-0.5,0.2-1,0.3-1.4c0.2-0.5,0.7-0.7,0.9-1.2c0.2-0.4,0.3-0.9,0.5-1.4c0.2-0.4,0.1-1,0.3-1.5c0.1-0.5,0.6-0.8,0.8-1.2
		c0.2-0.4,0-1,0.3-1.4c0.2-0.4,0.3-0.9,0.5-1.3c0.3-0.4,1.1-0.5,1.4-0.9c0.3-0.3-0.1-1,0.3-1.3c0.3-0.3,1.3-0.3,1.7-0.5
		c0.4-0.3,0.1-0.9,0.4-1.2c0.4-0.3,1-0.4,1.4-0.7c0.4-0.3,1-0.4,1.4-0.7c0.1-0.1,0.7,0.2,0.6,0.3c-0.3,0.4-0.3,0.9-0.5,1.3
		c-0.2,0.4-1,0.5-1.2,1c-0.2,0.4,0.2,1.1,0.1,1.6c-0.1,0.5-0.4,0.8-0.5,1.3c-0.1,0.5,0,1-0.1,1.5c-0.1,0.5,0,1-0.1,1.5
		c-0.1,0.5-0.4,0.8-0.5,1.3c-0.1,0.5-0.4,0.8-0.6,1.2c-0.1,0.4,0.1,1.1-0.1,1.5c-0.2,0.4-0.3,0.9-0.6,1.3c-0.3,0.4-0.5,0.8-0.8,1.2
		s-1,0.6-1.5,0.9c-0.5,0.3-0.8,0.7-1.1,1.1c-0.3,0.4-1,0.6-1.2,1c-0.2,0.4-0.3,0.9-0.4,1.4c-0.1,0.5-0.1,1-0.2,1.5
		c-0.1,0.4-0.2,0.8-0.3,1.2c-0.1,0.4-0.2,0.8-0.3,1.2c-0.1,0.4-0.2,0.8-0.4,1.2s-0.6,0.7-0.8,1c-0.2,0.4-0.4,0.7-0.7,1.1
		C427.7,523.2,427.4,523.1,427.4,523.1"/>
	<path class="st11" d="M428.3,464.5c0.3,0,0.7,0.1,1.1,0c0.3-0.1,0.7-0.1,1-0.3c0.3-0.2,0.5-0.8,0.8-1c0.3-0.2,0.5-0.8,0.8-1.1
		c0.3-0.2,0.6-0.3,0.9-0.6c0.3-0.2,0.6-0.4,0.8-0.7c0.3-0.3,0.7,0.1,1-0.2c0.3-0.3,0.3-1.2,0.5-1.5c0.3-0.2,0.7-0.1,0.9-0.4
		c0.3-0.2,0.6-0.5,1-0.6c0.3-0.2,0.8,0,1.2-0.1c0.3-0.1,0.6-0.4,1-0.6c0.3-0.2,0.6-0.6,0.9-0.8c0.3-0.2,0.8-0.1,1.1-0.3
		c0.3-0.2,0.5-0.7,0.8-0.8c0.3-0.1,0.6-0.5,0.9-0.6c0.4-0.1,1,0.4,1.4,0.3c0.3-0.1,0.4-0.7,0.7-0.8c0.4,0,1.1,0.6,1.5,0.6
		s0.4-0.7,0.8-0.7c0.4,0,1,0.3,1.3,0.3c0.4,0,1,0.3,1.3,0.2c0.1,0,0.5,0.6,0.4,0.6c-0.4,0.1-0.6,0.6-0.9,0.8c-0.3,0.2-1-0.2-1.3,0.1
		s-0.3,1-0.6,1.3c-0.3,0.3-0.7,0.4-1,0.7c-0.3,0.3-0.5,0.8-0.8,1.1c-0.3,0.3-0.5,0.7-0.8,1c-0.3,0.3-0.7,0.3-1,0.6
		c-0.3,0.3-0.7,0.3-1.1,0.5c-0.3,0.2-0.5,0.8-0.9,1c-0.4,0.2-0.7,0.4-1.1,0.5c-0.4,0.1-0.8,0.2-1.2,0.2c-0.4,0-1-0.3-1.5-0.5
		c-0.5-0.2-0.9-0.1-1.3-0.1c-0.4,0-1-0.4-1.3-0.3c-0.4,0.1-0.7,0.3-1.1,0.5c-0.3,0.2-0.6,0.5-1,0.7c-0.3,0.2-0.6,0.3-1,0.5
		c-0.3,0.2-0.6,0.3-1,0.4c-0.3,0.1-0.7,0.3-1,0.3c-0.4,0.1-0.7-0.1-1.1-0.1c-0.4,0-0.7,0.1-1.1,0
		C428.3,464.9,428.3,464.5,428.3,464.5"/>
	<path class="st9" d="M510.2,452.6c0.5,0.2,0.9,0.6,1.5,0.8c0.5,0.2,1,0.4,1.6,0.5c0.5,0.1,1.2-0.2,1.8-0.1c0.6,0.1,1.3-0.3,1.8-0.2
		c0.6,0.1,1.1,0.2,1.6,0.3c0.6,0,1.1,0.2,1.7,0.2c0.6,0,0.9,0.6,1.5,0.7c0.6,0,1.4-0.6,1.9-0.6c0.6,0.1,1,0.5,1.5,0.5
		c0.6,0.1,1.2,0.2,1.8,0.4c0.6,0.2,1.1,0.7,1.6,0.9c0.6,0.2,1.2,0.3,1.8,0.5s1.3,0.1,1.9,0.3c0.6,0.1,1.1,0.6,1.7,0.8
		c0.6,0.2,1.3,0,1.8,0.2c0.6,0.2,1.2,0.3,1.8,0.5c0.5,0.3,0.9,1.2,1.4,1.5c0.5,0.3,1.2-0.1,1.7,0.3c0.5,0.3,0.7,1.4,1.1,1.8
		c0.5,0.4,1.2,0,1.6,0.4c0.5,0.4,0.8,1.1,1.2,1.4c0.5,0.4,0.8,1.1,1.3,1.4c0.1,0.1-0.1,0.8-0.2,0.7c-0.5-0.3-1.2-0.2-1.8-0.5
		c-0.6-0.2-0.9-1-1.5-1.2c-0.6-0.2-1.4,0.3-2,0.1c-0.6-0.1-1.2-0.4-1.8-0.5c-0.6-0.1-1.3,0-1.9,0c-0.6-0.1-1.3,0-1.9-0.1
		c-0.6-0.1-1.1-0.4-1.8-0.6s-1.1-0.5-1.7-0.6c-0.6-0.1-1.3,0.1-1.9-0.1c-0.6-0.2-1.2-0.3-1.8-0.6c-0.6-0.3-1.1-0.5-1.7-0.9
		s-0.9-1.1-1.4-1.6c-0.5-0.5-1-0.8-1.5-1.2c-0.5-0.3-0.9-1.1-1.5-1.3c-0.6-0.2-1.2-0.3-1.8-0.5c-0.6-0.1-1.3-0.1-1.9-0.2
		c-0.5-0.1-1.1-0.3-1.6-0.4s-1.1-0.2-1.6-0.4c-0.5-0.2-1.1-0.3-1.6-0.5c-0.5-0.2-0.9-0.6-1.4-0.9c-0.5-0.3-1-0.5-1.5-0.8
		C510.1,452.9,510.2,452.5,510.2,452.6 M542.1,562.3c-0.3-0.5-0.4-1-0.7-1.5c-0.3-0.4-0.6-0.9-0.9-1.3c-0.4-0.4-1.1-0.5-1.5-0.9
		c-0.4-0.4-1.2-0.5-1.6-0.8c-0.4-0.4-0.7-0.8-1.1-1.1c-0.4-0.3-0.8-0.7-1.2-1.1c-0.4-0.3-0.4-1-0.8-1.4c-0.4-0.3-1.5-0.2-1.9-0.5
		c-0.4-0.3-0.5-0.9-1-1.2c-0.5-0.4-0.9-0.8-1.3-1.2c-0.4-0.4-0.5-1.1-0.9-1.6c-0.4-0.5-0.9-0.8-1.3-1.3c-0.4-0.5-1-0.7-1.4-1.1
		c-0.4-0.4-0.6-1-1-1.5c-0.4-0.4-1.1-0.6-1.4-1.1c-0.4-0.5-0.9-0.8-1.2-1.2c-0.3-0.5-0.2-1.4-0.5-1.9c-0.3-0.5-1.1-0.5-1.3-0.9
		c-0.2-0.5,0.1-1.5-0.2-2c-0.2-0.5-1-0.5-1.2-1c-0.2-0.5-0.2-1.3-0.5-1.8c-0.2-0.5-0.2-1.3-0.5-1.7c-0.1-0.1,0.4-0.6,0.5-0.5
		c0.4,0.5,1,0.7,1.4,1.1c0.4,0.4,0.4,1.3,0.8,1.7c0.5,0.4,1.3,0.3,1.8,0.7c0.5,0.4,0.8,0.8,1.3,1.2c0.5,0.4,1.2,0.6,1.7,0.9
		c0.5,0.4,1.1,0.6,1.6,1c0.5,0.4,0.8,0.9,1.3,1.3c0.5,0.4,0.8,0.9,1.2,1.4c0.4,0.4,1.2,0.6,1.6,1.1c0.4,0.5,0.8,0.9,1.2,1.4
		c0.3,0.5,0.7,1,0.9,1.6c0.2,0.6,0.2,1.4,0.3,2.1c0.1,0.7,0.4,1.2,0.7,1.8c0.2,0.6,0.2,1.4,0.5,1.9c0.4,0.5,0.8,0.9,1.2,1.4
		c0.4,0.4,1,0.8,1.4,1.2c0.4,0.4,0.7,0.8,1.1,1.2c0.4,0.4,0.7,0.8,1.1,1.3c0.3,0.4,0.7,0.9,1,1.3c0.3,0.5,0.4,1.1,0.6,1.6
		c0.2,0.5,0.5,1,0.6,1.5C542.5,562.2,542.2,562.4,542.1,562.3"/>
	<path class="st12" d="M547.8,531.6c0.1,0,0.3,0,0.4,0c0.1-0.1,0.2-0.1,0.2-0.2c0-0.1-0.2-0.6-0.2-0.8c0-0.2-0.3-0.7-0.3-0.8
		c0-0.2,0.1-0.2,0.1-0.4s0-0.3,0-0.5c0-0.2,0.4,0.1,0.3-0.1c0-0.2-0.5-1-0.5-1.1c0-0.2,0.2-0.1,0.2-0.2c0-0.2,0.1-0.3,0.1-0.4
		c0.1-0.1,0.4,0.1,0.5,0c0.1-0.1,0.1-0.3,0.2-0.4c0.1-0.1,0-0.4,0.1-0.5c0.1-0.1,0.3,0,0.4-0.1c0.1-0.1-0.1-0.5,0-0.5
		c0.1-0.1,0.1-0.3,0.2-0.3c0.1,0,0.7,0.5,0.9,0.5c0.2,0-0.1-0.5,0.1-0.5c0.2,0.1,0.9,0.7,1.1,0.8c0.2,0.1-0.1-0.4,0.2-0.3
		c0.2,0.1,0.6,0.4,0.8,0.5c0.2,0.1,0.6,0.4,0.8,0.5c0.1,0,0.5,0.5,0.5,0.6c-0.2,0-0.1,0.3-0.2,0.4c-0.1,0.1-0.6-0.3-0.7-0.2
		c-0.1,0.1,0.3,0.7,0.2,0.9c0,0.2-0.2,0.2-0.2,0.4c0,0.2,0.1,0.5,0.1,0.7c0,0.2,0.1,0.5,0,0.6c0,0.2-0.2,0.1-0.2,0.3
		c0,0.2-0.2,0.1-0.3,0.3c-0.1,0.1,0.1,0.6,0,0.7c-0.1,0.1-0.1,0.2-0.3,0.3c-0.1,0-0.3,0.1-0.5,0c-0.2-0.1-0.6-0.4-0.9-0.5
		c-0.3-0.2-0.5-0.2-0.7-0.2c-0.2,0-0.6-0.4-0.8-0.3c-0.1,0.1-0.1,0.2-0.2,0.4c-0.1,0.1,0,0.4,0,0.6c0,0.1-0.1,0.2-0.2,0.3
		s-0.1,0.3-0.2,0.3c-0.1,0.1-0.1,0.2-0.2,0.3c-0.1,0-0.3-0.1-0.5-0.1c-0.2,0-0.2,0.1-0.5,0C547.9,531.8,547.8,531.7,547.8,531.6"/>
</g>
</svg>
